<?xml version="1.0" encoding="utf-8"?>
<!-- Generator: Adobe Illustrator 19.0.0, SVG Export Plug-In . SVG Version: 6.00 Build 0)  -->
<svg version="1.1" id="Capa_1" xmlns="http://www.w3.org/2000/svg" xmlns:xlink="http://www.w3.org/1999/xlink" x="0px" y="0px"
	 viewBox="0 0 229 7" style="enable-background:new 0 0 229 7;" xml:space="preserve">
<style type="text/css">
	.st0{fill:#211E1F;}
</style>
<g id="XMLID_2_">
	<g id="XMLID_33_">
		<rect id="XMLID_35_" x="222.5" y="3.9" class="st0" width="3.3" height="3.3"/>
		<rect id="XMLID_34_" x="225.9" y="0.6" class="st0" width="3.3" height="3.3"/>
	</g>
	<g id="XMLID_30_">
		<rect id="XMLID_32_" x="200.3" y="3.9" class="st0" width="3.3" height="3.3"/>
		<rect id="XMLID_31_" x="203.7" y="0.6" class="st0" width="3.3" height="3.3"/>
	</g>
	<g id="XMLID_27_">
		<rect id="XMLID_29_" x="178.1" y="3.9" class="st0" width="3.3" height="3.3"/>
		<rect id="XMLID_28_" x="181.4" y="0.6" class="st0" width="3.3" height="3.3"/>
	</g>
	<g id="XMLID_24_">
		<rect id="XMLID_26_" x="155.9" y="3.9" class="st0" width="3.3" height="3.3"/>
		<rect id="XMLID_25_" x="159.2" y="0.6" class="st0" width="3.3" height="3.3"/>
	</g>
	<g id="XMLID_21_">
		<rect id="XMLID_23_" x="133.7" y="3.9" class="st0" width="3.3" height="3.3"/>
		<rect id="XMLID_22_" x="137" y="0.6" class="st0" width="3.3" height="3.3"/>
	</g>
	<g id="XMLID_18_">
		<rect id="XMLID_20_" x="111.5" y="3.9" class="st0" width="3.3" height="3.3"/>
		<rect id="XMLID_19_" x="114.8" y="0.6" class="st0" width="3.3" height="3.3"/>
	</g>
	<g id="XMLID_15_">
		<rect id="XMLID_17_" x="89.3" y="3.9" class="st0" width="3.3" height="3.3"/>
		<rect id="XMLID_16_" x="92.6" y="0.6" class="st0" width="3.3" height="3.3"/>
	</g>
	<g id="XMLID_12_">
		<rect id="XMLID_14_" x="67.1" y="3.9" class="st0" width="3.3" height="3.3"/>
		<rect id="XMLID_13_" x="70.4" y="0.6" class="st0" width="3.3" height="3.3"/>
	</g>
	<g id="XMLID_9_">
		<rect id="XMLID_11_" x="44.9" y="3.9" class="st0" width="3.3" height="3.3"/>
		<rect id="XMLID_10_" x="48.2" y="0.6" class="st0" width="3.3" height="3.3"/>
	</g>
	<g id="XMLID_6_">
		<rect id="XMLID_8_" x="22.7" y="3.9" class="st0" width="3.3" height="3.3"/>
		<rect id="XMLID_7_" x="26" y="0.6" class="st0" width="3.3" height="3.3"/>
	</g>
	<g id="XMLID_3_">
		<rect id="XMLID_5_" x="0.4" y="3.9" class="st0" width="3.3" height="3.3"/>
		<rect id="XMLID_4_" x="3.8" y="0.6" class="st0" width="3.3" height="3.3"/>
	</g>
</g>
</svg>
