<?xml version="1.0" encoding="utf-8"?>
<!-- Generator: Adobe Illustrator 19.0.0, SVG Export Plug-In . SVG Version: 6.00 Build 0)  -->
<svg version="1.1" id="Capa_1" xmlns="http://www.w3.org/2000/svg" xmlns:xlink="http://www.w3.org/1999/xlink" x="0px" y="0px"
	 viewBox="0 0 559 31" style="enable-background:new 0 0 559 31;" xml:space="preserve">
<g id="XMLID_2_">
	<g id="XMLID_227_">
		<path id="XMLID_257_" d="M-0.2,21v-3.4h11V21H-0.2z"/>
		<path id="XMLID_254_" d="M56.5,18.9c0,0.3-0.1,0.7-0.1,1.3c0,0.4-0.1,0.9-0.3,1.6L55.5,24c-0.2,0.6-0.4,1.3-0.8,1.9
			c-0.3,0.6-0.7,1.1-1.4,1.7c-1.2,1.1-2.6,1.9-4.1,2.4l-0.9,0.2l-0.7,0.1L43,30.3h-7.5V1h9.7c3.1,0,5.6,0.7,7.4,2.1
			c1.5,1.1,2.6,2.7,3.4,5c0.5,1.9,0.8,4.2,0.8,6.8C56.7,16.5,56.7,17.9,56.5,18.9z M53.5,12.8l-0.1-1.9c0-0.4,0-0.8-0.1-1.2
			c-0.1-0.5-0.2-0.8-0.4-1.2c-0.2-0.7-0.5-1.3-0.9-2.1c-0.8-1.6-1.9-2.6-3.5-3.2c-0.4-0.2-1.2-0.3-2.1-0.4c-1-0.1-3.7-0.1-8.2-0.1
			v25.9h6h0.6h0.5c1,0,1.7-0.1,2.1-0.1c0.4-0.1,0.9-0.3,1.4-0.5l1.9-0.8c0.9-0.5,1.5-1.5,1.9-3l0.4-1.8c0.1-0.3,0.1-0.8,0.2-1.3
			c0-0.1,0-0.1,0-0.2v-0.8l0.1-2.6v-0.8l0-0.6l0.1-1l0.1-1.3L53.5,12.8z"/>
		<path id="XMLID_252_" d="M80.1,30.3V1h17.2v1.9H83V14h13.5v1.9H83v12.5h14.5v2H80.1z"/>
		<path id="XMLID_250_" d="M132.2,2.8v27.5h-3.1V2.8h-9.3V1h21.1v1.9H132.2z"/>
		<path id="XMLID_247_" d="M177.4,30.3l-2.8-8.8h-12.7l-2.6,8.8h-2.9l9.7-29.3h4.3l9.9,29.3H177.4z M168.2,1l-5.7,18.7H174L168.2,1z
			"/>
		<path id="XMLID_245_" d="M203.6,30.3V1h3.9v29.4H203.6z"/>
		<path id="XMLID_243_" d="M231,30.3V1h2.9v27.3h14.9v2H231z"/>
		<path id="XMLID_241_" d="M304.6,30.3V1h3.9v29.4H304.6z"/>
		<path id="XMLID_239_" d="M350.9,28.7c-1.8,1.6-4.4,2.3-7.8,2.3c-3.3,0-5.7-0.8-7.4-2.5c-1.5-1.5-2.2-3-2.2-4.3v-2.4h2.7v-0.4
			c0,2.4,0.4,4.2,1.3,5.3c1.3,1.6,3.2,2.4,5.7,2.4s4.4-0.6,5.7-1.8c1.2-1.3,1.9-2.9,1.9-5c0-2.2-1.6-4-4.8-5.2l-8-2.6
			c-2.6-1.2-3.9-3.2-3.9-5.8c0-2.7,0.8-4.8,2.5-6.3c1.6-1.5,3.9-2.3,6.8-2.3c2.8,0,5,0.7,6.7,2c0.7,0.5,1.3,1.3,1.7,2.3
			c0.4,0.9,0.6,1.9,0.6,3.1h-2.5c0-0.9-0.1-1.6-0.4-2.2c-0.3-0.7-0.7-1.2-1.1-1.7c-1-1.1-2.6-1.7-4.8-1.7c-2.1,0-3.7,0.4-5,1.3
			c-1.3,1-1.9,2.6-1.9,4.8c0,2.3,1.6,4,4.8,5.1l8.1,2.6c2.7,1.2,4,3.4,4,6.4C353.6,25,352.7,27.2,350.9,28.7z"/>
		<path id="XMLID_236_" d="M429.1,30.3l-0.4-0.9l-0.2-0.7l-0.1-0.5l-0.1-2.4l-0.2-3l-0.2-1.1c0-0.2,0-0.5-0.1-0.7
			c0-0.3-0.1-0.5-0.2-0.7c-0.2-1.1-1-2-2.3-2.7c-1.3-0.7-5.3-1-12-1v13.6h-2.8V1h9.9c3.5,0,6.2,0.6,8,1.6c0.9,0.6,1.6,1.3,2.1,2.1
			c0.5,0.9,0.8,1.9,0.8,3c0,2.3-0.5,4-1.5,5c-1,1-2.7,1.8-5,2.3l0,1.2c2.9,0.3,4.8,1.3,5.6,3.1c0.2,0.5,0.4,1.2,0.5,2.2
			c0.1,1.1,0.2,2.2,0.2,3.3c0,1.2,0.2,2.3,0.4,3.1c0.2,1,0.6,1.7,1,2.3H429.1z M426.3,4.1c-1.4-0.9-2.8-1.3-4.4-1.3h-4.5l-4,0V15
			h5.8c2.9,0,5.1-0.5,6.5-1.5c1.8-1.1,2.6-2.8,2.6-5.2C428.4,6.4,427.7,5,426.3,4.1z"/>
		<path id="XMLID_233_" d="M475.6,30.3l-2.8-8.8h-12.7l-2.6,8.8h-2.9l9.8-29.3h4.2l9.9,29.3H475.6z M466.5,1l-5.7,18.7h11.5L466.5,1
			z"/>
		<path id="XMLID_230_" d="M522.9,18.9c0,0.3-0.1,0.7-0.1,1.3c0,0.4-0.1,0.9-0.3,1.6l-0.5,2.2c-0.2,0.6-0.4,1.3-0.8,1.9
			c-0.3,0.6-0.8,1.1-1.4,1.7c-1.3,1.1-2.6,1.9-4.1,2.4l-0.9,0.2l-0.7,0.1l-4.5,0.1h-7.5V1h9.7c3.1,0,5.6,0.7,7.4,2.1
			c1.5,1.1,2.6,2.7,3.4,5c0.5,1.9,0.8,4.2,0.8,6.8C523.1,16.5,523,17.9,522.9,18.9z M519.9,12.8l-0.2-1.9c0-0.4,0-0.8-0.1-1.2
			c-0.1-0.5-0.2-0.8-0.4-1.2c-0.2-0.7-0.5-1.3-0.8-2.1c-0.8-1.6-1.9-2.6-3.5-3.2c-0.5-0.2-1.2-0.3-2.2-0.4c-1-0.1-3.8-0.1-8.2-0.1
			v25.9h6h0.6h0.5c1,0,1.7-0.1,2.1-0.1c0.4-0.1,0.9-0.3,1.4-0.5l1.9-0.8c0.9-0.5,1.6-1.5,1.9-3l0.4-1.8c0-0.3,0.1-0.8,0.2-1.3
			c0-0.1,0-0.1,0-0.2v-0.8l0.1-2.6v-0.8l0-0.6l0.1-1l0.1-1.3L519.9,12.8z"/>
		<path id="XMLID_228_" d="M547.2,21v-3.4h11V21H547.2z"/>
	</g>
</g>
</svg>
