<?xml version="1.0" encoding="utf-8"?>
<!-- Generator: Adobe Illustrator 19.0.0, SVG Export Plug-In . SVG Version: 6.00 Build 0)  -->
<svg version="1.1" id="Capa_1" xmlns="http://www.w3.org/2000/svg" xmlns:xlink="http://www.w3.org/1999/xlink" x="0px" y="0px"
	 viewBox="0 0 45 45" style="enable-background:new 0 0 45 45;" xml:space="preserve">
<style type="text/css">
	.st0{fill:#1C1C1B;}
	.st1{fill:#FFFFFF;}
</style>
<g id="XMLID_12_">
	<g id="XMLID_15_">
		<path id="XMLID_2_" class="st0" d="M22.5,0.3c12.3,0,22.2,9.9,22.2,22.2c0,12.2-9.9,22.2-22.2,22.2c-12.2,0-22.2-9.9-22.2-22.2
			C0.3,10.3,10.3,0.3,22.5,0.3z M28.4,22.4l0.5-4.8h-4.3v-2.8c0-1.1,0.7-1.3,1.2-1.3c0.5,0,3.1,0,3.1,0V8.7l-4.2,0
			c-4.7,0-5.7,3.5-5.7,5.7v3.1h-2.7v4.8h2.7c0,6.2,0,13.7,0,13.7h5.7c0,0,0-7.6,0-13.7H28.4z"/>
		<path id="XMLID_1_" class="st1" d="M28.9,17.6l-0.5,4.8h-3.8c0,6.1,0,13.7,0,13.7h-5.7c0,0,0-7.5,0-13.7h-2.7v-4.8h2.7v-3.1
			c0-2.2,1.1-5.7,5.7-5.7l4.2,0v4.7c0,0-2.6,0-3.1,0c-0.5,0-1.2,0.2-1.2,1.3v2.8H28.9z"/>
	</g>
	<g id="XMLID_14_">
	</g>
</g>
</svg>
