<?xml version="1.0" encoding="utf-8"?>
<!-- Generator: Adobe Illustrator 19.0.0, SVG Export Plug-In . SVG Version: 6.00 Build 0)  -->
<svg version="1.1" id="Capa_1" xmlns="http://www.w3.org/2000/svg" xmlns:xlink="http://www.w3.org/1999/xlink" x="0px" y="0px"
	 viewBox="0 0 45 45" style="enable-background:new 0 0 45 45;" xml:space="preserve">
<style type="text/css">
	.st0{fill:#1C1C1B;}
	.st1{fill:#FFFFFF;}
</style>
<g id="XMLID_19_">
	<g id="XMLID_10_">
		<g id="XMLID_29_">
			<path id="XMLID_9_" class="st0" d="M22.5,0.3c12.2,0,22.2,9.9,22.2,22.2s-9.9,22.2-22.2,22.2S0.3,34.7,0.3,22.5
				S10.3,0.3,22.5,0.3z M34.5,30.2v-9.9v-4.9c0-2.6-2.1-4.7-4.7-4.7H15c-2.6,0-4.7,2.1-4.7,4.7v4.9v9.9c0,2.6,2.1,4.7,4.7,4.7h14.8
				C32.4,34.9,34.5,32.8,34.5,30.2z"/>
			<path id="XMLID_8_" class="st0" d="M32.1,20.4v9.9c0,1.3-1,2.3-2.3,2.3H15c-1.3,0-2.3-1-2.3-2.3v-9.9h3.6
				c-0.3,0.8-0.5,1.6-0.5,2.5c0,3.6,3,6.6,6.6,6.6c3.6,0,6.6-3,6.6-6.6c0-0.9-0.2-1.7-0.5-2.5H32.1z"/>
			<polygon id="XMLID_7_" class="st0" points="31.7,14.1 31.7,17.6 27.6,17.7 27.6,13.6 31.1,13.6 31.7,13.6 			"/>
			<path id="XMLID_6_" class="st0" d="M25.8,20.4c0.5,0.7,0.8,1.5,0.8,2.5c0,2.3-1.9,4.2-4.2,4.2s-4.2-1.9-4.2-4.2
				c0-0.9,0.3-1.8,0.8-2.5c0.8-1.1,2-1.8,3.5-1.8C23.8,18.6,25.1,19.3,25.8,20.4z"/>
			<path id="XMLID_1_" class="st1" d="M22.4,27.1c2.3,0,4.2-1.9,4.2-4.2c0-0.9-0.3-1.8-0.8-2.5c-0.8-1.1-2-1.8-3.4-1.8
				c-1.4,0-2.7,0.7-3.5,1.8c-0.5,0.7-0.8,1.5-0.8,2.5C18.2,25.2,20.1,27.1,22.4,27.1z M31.7,17.6v-3.6v-0.5h-0.5l-3.5,0l0,4.1
				L31.7,17.6z M32.1,30.2v-9.9h-3.6c0.3,0.8,0.5,1.6,0.5,2.5c0,3.6-3,6.6-6.6,6.6c-3.6,0-6.6-3-6.6-6.6c0-0.9,0.2-1.7,0.5-2.5h-3.6
				v9.9c0,1.3,1,2.3,2.3,2.3h14.8C31.1,32.5,32.1,31.5,32.1,30.2z M34.5,15.4v4.9v9.9c0,2.6-2.1,4.7-4.7,4.7H15
				c-2.6,0-4.7-2.1-4.7-4.7v-9.9v-4.9c0-2.6,2.1-4.7,4.7-4.7h14.8C32.4,10.8,34.5,12.9,34.5,15.4z"/>
		</g>
		<g id="XMLID_28_">
		</g>
	</g>
</g>
</svg>
