<?xml version="1.0" encoding="utf-8"?>
<!-- Generator: Adobe Illustrator 19.0.0, SVG Export Plug-In . SVG Version: 6.00 Build 0)  -->
<svg version="1.1" id="Capa_1" xmlns="http://www.w3.org/2000/svg" xmlns:xlink="http://www.w3.org/1999/xlink" x="0px" y="0px"
	 viewBox="0 0 126 4" style="enable-background:new 0 0 126 4;" xml:space="preserve">
<style type="text/css">
	.st0{fill:#211E1F;}
</style>
<g id="XMLID_2_">
	<g id="XMLID_33_">
		<rect id="XMLID_35_" x="122.2" y="2" class="st0" width="1.8" height="1.8"/>
		<rect id="XMLID_34_" x="124.1" y="0.2" class="st0" width="1.8" height="1.8"/>
	</g>
	<g id="XMLID_30_">
		<rect id="XMLID_32_" x="110" y="2" class="st0" width="1.8" height="1.8"/>
		<rect id="XMLID_31_" x="111.9" y="0.2" class="st0" width="1.8" height="1.8"/>
	</g>
	<g id="XMLID_27_">
		<rect id="XMLID_29_" x="97.8" y="2" class="st0" width="1.8" height="1.8"/>
		<rect id="XMLID_28_" x="99.6" y="0.2" class="st0" width="1.8" height="1.8"/>
	</g>
	<g id="XMLID_24_">
		<rect id="XMLID_26_" x="85.6" y="2" class="st0" width="1.8" height="1.8"/>
		<rect id="XMLID_25_" x="87.4" y="0.2" class="st0" width="1.8" height="1.8"/>
	</g>
	<g id="XMLID_21_">
		<rect id="XMLID_23_" x="73.4" y="2" class="st0" width="1.8" height="1.8"/>
		<rect id="XMLID_22_" x="75.2" y="0.2" class="st0" width="1.8" height="1.8"/>
	</g>
	<g id="XMLID_18_">
		<rect id="XMLID_20_" x="61.2" y="2" class="st0" width="1.8" height="1.8"/>
		<rect id="XMLID_19_" x="63" y="0.2" class="st0" width="1.8" height="1.8"/>
	</g>
	<g id="XMLID_15_">
		<rect id="XMLID_17_" x="49" y="2" class="st0" width="1.8" height="1.8"/>
		<rect id="XMLID_16_" x="50.8" y="0.2" class="st0" width="1.8" height="1.8"/>
	</g>
	<g id="XMLID_12_">
		<rect id="XMLID_14_" x="36.7" y="2" class="st0" width="1.8" height="1.8"/>
		<rect id="XMLID_13_" x="38.6" y="0.2" class="st0" width="1.8" height="1.8"/>
	</g>
	<g id="XMLID_9_">
		<rect id="XMLID_11_" x="24.5" y="2" class="st0" width="1.8" height="1.8"/>
		<rect id="XMLID_10_" x="26.4" y="0.2" class="st0" width="1.8" height="1.8"/>
	</g>
	<g id="XMLID_6_">
		<rect id="XMLID_8_" x="12.3" y="2" class="st0" width="1.8" height="1.8"/>
		<rect id="XMLID_7_" x="14.1" y="0.2" class="st0" width="1.8" height="1.8"/>
	</g>
	<g id="XMLID_3_">
		<rect id="XMLID_5_" x="0.1" y="2" class="st0" width="1.8" height="1.8"/>
		<rect id="XMLID_4_" x="1.9" y="0.2" class="st0" width="1.8" height="1.8"/>
	</g>
</g>
</svg>
