<?xml version="1.0" encoding="utf-8"?>
<!-- Generator: Adobe Illustrator 19.0.0, SVG Export Plug-In . SVG Version: 6.00 Build 0)  -->
<svg version="1.1" id="Capa_1" xmlns="http://www.w3.org/2000/svg" xmlns:xlink="http://www.w3.org/1999/xlink" x="0px" y="0px"
	 viewBox="0 0 45 45" style="enable-background:new 0 0 45 45;" xml:space="preserve">
<style type="text/css">
	.st0{fill:#1C1C1B;}
	.st1{fill:#FFFFFF;}
</style>
<g id="XMLID_11_">
	<g id="XMLID_15_">
		<path id="XMLID_2_" class="st0" d="M22.5,0.3c12.2,0,22.2,9.9,22.2,22.2s-9.9,22.2-22.2,22.2c-12.3,0-22.2-9.9-22.2-22.2
			S10.3,0.3,22.5,0.3z M33.7,18c1.1-0.8,2-1.8,2.8-2.9c-1,0.4-2.1,0.7-3.2,0.9c1.2-0.7,2-1.8,2.5-3.1c-1.1,0.6-2.3,1.1-3.5,1.4
			c-1-1.1-2.5-1.8-4.1-1.8c-3.1,0-5.6,2.5-5.6,5.6c0,0.4,0,0.9,0.1,1.3c-4.6-0.2-8.8-2.5-11.5-5.8c-0.5,0.8-0.8,1.8-0.8,2.8
			c0,1.9,1,3.7,2.5,4.7c-0.9,0-1.8-0.3-2.5-0.7c0,0,0,0,0,0.1c0,2.7,1.9,5,4.5,5.5c-0.5,0.1-1,0.2-1.5,0.2c-0.4,0-0.7,0-1.1-0.1
			c0.7,2.2,2.8,3.8,5.2,3.9c-1.9,1.5-4.3,2.4-6.9,2.4c-0.4,0-0.9,0-1.3-0.1c2.5,1.6,5.4,2.5,8.6,2.5c10.3,0,15.9-8.5,15.9-15.9
			C33.7,18.5,33.7,18.3,33.7,18z"/>
		<path id="XMLID_1_" class="st1" d="M36.5,15.1c-0.7,1.1-1.7,2.1-2.8,2.9c0,0.2,0,0.5,0,0.7c0,7.4-5.6,15.9-15.9,15.9
			c-3.2,0-6.1-0.9-8.6-2.5c0.4,0,0.9,0.1,1.3,0.1c2.6,0,5-0.9,6.9-2.4c-2.4,0-4.5-1.7-5.2-3.9C12.6,26,13,26,13.3,26
			c0.5,0,1-0.1,1.5-0.2c-2.6-0.5-4.5-2.8-4.5-5.5c0,0,0,0,0-0.1c0.7,0.4,1.6,0.7,2.5,0.7c-1.5-1-2.5-2.7-2.5-4.7c0-1,0.3-2,0.8-2.8
			c2.8,3.4,6.9,5.6,11.5,5.8c-0.1-0.4-0.1-0.8-0.1-1.3c0-3.1,2.5-5.6,5.6-5.6c1.6,0,3.1,0.7,4.1,1.8c1.3-0.2,2.5-0.7,3.5-1.4
			c-0.4,1.3-1.3,2.4-2.5,3.1C34.4,15.9,35.5,15.6,36.5,15.1z"/>
	</g>
	<g id="XMLID_14_">
	</g>
</g>
</svg>
